<?xml version="1.0" encoding="utf-8"?>
<!-- Generator: Adobe Illustrator 22.0.1, SVG Export Plug-In . SVG Version: 6.00 Build 0)  -->
<svg version="1.1" id="圖層_1" xmlns="http://www.w3.org/2000/svg" xmlns:xlink="http://www.w3.org/1999/xlink" x="0px" y="0px"
	 viewBox="0 0 150 50" style="enable-background:new 0 0 150 50;" xml:space="preserve">
<style type="text/css">
	.st0{fill:#FFFFFF;}
</style>
<g>
	<path class="st0" d="M18.4,7.1h8.5v19.3c0,4.1-0.3,7.1-0.8,9.3c-0.6,2.1-1.7,3.9-3.4,5.4c-1.7,1.5-3.8,2.2-6.5,2.2
		c-2.8,0-4.9-0.5-6.4-1.5c-1.5-1-2.7-2.4-3.5-4.3c-0.8-1.9-1.3-4.2-1.5-6.9l8.1-1.4c0,1.6,0.1,2.7,0.3,3.5c0.2,0.8,0.5,1.4,1,1.8
		c0.3,0.3,0.8,0.5,1.4,0.5c0.9,0,1.6-0.5,2.1-1.4s0.7-2.5,0.7-4.6V7.1z"/>
	<path class="st0" d="M37.5,7.1h9.4l5.5,12l5.5-12h9.4L56.7,27.8v14.9h-8.5V27.8L37.5,7.1z"/>
	<path class="st0" d="M95.6,7.1h8.5v21.2c0,2.1-0.3,4.1-0.8,6c-0.5,1.9-1.3,3.5-2.4,4.9c-1.1,1.4-2.2,2.4-3.4,2.9
		c-1.6,0.8-3.6,1.2-5.9,1.2c-1.3,0-2.8-0.1-4.4-0.4c-1.6-0.2-2.9-0.7-4-1.4c-1.1-0.7-2-1.7-2.9-3.1c-0.9-1.3-1.5-2.7-1.8-4.1
		c-0.5-2.3-0.8-4.3-0.8-6V7.1h8.5v21.7c0,1.9,0.4,3.5,1.2,4.5c0.8,1.1,2,1.6,3.5,1.6c1.5,0,2.6-0.5,3.4-1.6c0.8-1.1,1.2-2.6,1.2-4.6
		V7.1z"/>
	<path class="st0" d="M117.4,7.1h7.9l10.3,19.7V7.1h8v35.6h-8l-10.3-19.5v19.5h-8V7.1z"/>
</g>
</svg>
